# xmcd CD database file
#
# Track frame offsets:
#	150
#	16640
#	37305
#	62682
#	81757
#	98627
#	123282
#	139335
#	159557
#	173490
#	193895
#	218425
#	238157
#
# Disc length: 3386 seconds
#
# Revision: 2
# Processed by: cddbd v1.4PL0 Copyright (c) Steve Scherf et al.
# Submitted via: CDex 1.50Beta7
#
DISCID=a90d380d
DTITLE=TOKU - CHEMISTRY OF LOVE
DYEAR=2002
DGENRE=Jazz
TTITLE0=Mr. Sadman,Bring Me A Dream
TTITLE1=Fotografia
TTITLE2=The Chemistry Of Love
TTITLE3=She
TTITLE4=I Could Write A Book
TTITLE5=Change Partnres
TTITLE6=I Just Wanna Stop
TTITLE7=I Just Miss You,That's All
TTITLE8=Look For The Silver Lining
TTITLE9=Walk Between Raindrops
TTITLE10=Born To Be Blue
TTITLE11=Smile
TTITLE12=You Are So Beautiful
EXTD=YEAR: 2002
EXTT0=
EXTT1=
EXTT2=
EXTT3=
EXTT4=
EXTT5=
EXTT6=
EXTT7=
EXTT8=
EXTT9=
EXTT10=
EXTT11=
EXTT12=
PLAYORDER=
